<?xml version="1.0" encoding="UTF-8"?>
<svg id="Layer_2" data-name="Layer 2" xmlns="http://www.w3.org/2000/svg" viewBox="0 0 932.45 1470.12">
  <defs>
    <style>
      .cls-1 {
        fill: #fff;
      }
    </style>
  </defs>
  <g id="Layer_1-2" data-name="Layer 1">
    <g>
      <path class="cls-1" d="M757.96,393.86c-10.04-2.74-22.71-5.4-31.73-6.84,13.59-17.63,26.32-34.98,45.1-47.95,13.81-9.53,28.26-12.28,43.79-19.23,20.55-9.2,39.64-30.93,32.98-55.09-1.59-5.77-7.35-11.86-12.12-15.28-19.75-14.38-50.45.72-68.05,13.34-22.67,16.24-41.16,37.42-62.23,56.44-19.51,17.61-44.21,26.75-50.46-8.04-3.39-18.86,2.24-38.86,9.3-56.17,14.54-36.89,82.76-108.3,39.9-145.06-4.86-4.17-11.16-5.69-17.46-5.88-13.75,1.25-24.61,7.56-33.35,18.18-35.68,43.33-22.09,101.08-28.97,151.77-4.73,34.85-17.54,67.17-35.55,97.14-8.86-2.05-17.55-3.63-26.49-5.28,1.97-14.33,4.25-30.73-4.94-43.16-8.61-11.64-24.57-10.55-34.74-1.62-12.56,11.03-15.63,25.77-17.2,41.56-64.95-4.11-134.92-5.05-199.55,2.21-10.88-28.15-8.1-55.69-20.43-83.14-16.48-36.68-53.51-26.91-53.39,12.09-.23,10.93,2.34,36.13-7.47,40.75-15.91-.85-35.98-52.72-42.86-66.32-26.27-51.92-64.88-124.32-129.81-131.21-43.29-4.59-58.24,47.08-29.02,75.08,16.73,16.03,33.38,21.76,53.12,32.85,38.51,21.61,73.11,75.35,74.8,119.95-17.37-10.19-36.84-25.24-58.24-20.12-13.63,3.26-20.15,16.8-16.44,30,3.59,12.78,13.32,19.67,24.41,25.91-26.65,10.62-52.82,33.17-38.56,65.92,11.87,27.28,34.5,52.18,50.01,77.62,77.01,110.36,155.36,221.02,246.79,320.05,20.75,22.47,44.21,43.12,53.07,73.23,9.72,33.06,7.62,71.18,6.97,105.4l-1.37,69.24-1.04,54.7c-.49,28.62.58,62.71-10.15,89.48-3.67,9.14-9.58,18.33-19.07,21.81-13.86,5.09-28.22,6.17-42.62,9.33-25.3,5.56-53.56,11.97-77.78,21.15-24.24,9.41-55.91,22.51-66.99,47.98-4.68,10.76-4.44,23.79-.03,34.63,9.52,23.34,37.98,38.02,60.13,47.06,97.79,39.94,290.29,43.85,387.74,2.54,20.47-8.68,44.21-21.17,53.03-42.82,4.49-11.03,4.99-22.54.29-33.58-10.65-25.06-40.76-39.54-64.74-48.97-19.81-7.78-40.57-14.08-61.2-19.33-15.79-4.02-47.97-8.76-60.59-15.91-5.6-3.17-9.39-9.8-11.94-15.51-5.58-12.47-7.36-27.07-8.33-40.58-1.11-15.53-.3-31.45-.02-47.01l1.48-72.6c1.05-44.79.88-89.41,5.12-134.06,4.75-50.01,33.2-71.57,66.54-104.39,92.6-91.17,172.64-193.96,251.61-296.85,19.06-26.16,40.62-51.96,56.86-79.88,5.53-9.5,6.99-28.66,1.56-38.75-21.45-39.85-80.15-45.98-119.65-56.77ZM653.02,180.81c3.39-19.16,11.67-40.66,28.09-52.15,3.13-.36,3.4-.53,6.17.72,12.89,14.2-21.78,71.35-30.01,85.51-1.2,2.24-1.39,3-3.35,4.49l-1.15-1.21c-2.07-7.46-1.12-29.59.26-37.36ZM556.23,387.74l21.46,2.7c-5.11,8.02-11.1,15.11-17.63,21.99-2.88,3.06-7.07,8.5-11.17,5.58-2.33-7.21,4.6-23.05,7.34-30.26ZM525.08,382.61c1.62-16.19,1.89-32.24,13.91-44.49,16.6,7.06-6.32,57.76-11.78,68.65l-1,1.32c-2.49-3.4-1.62-20.58-1.13-25.48ZM425.48,380.57c4.02-.6,16.98-.24,21.67-.21,19.56.12,39.14,1.5,58.68,2.47-4.26,30.88-10.74,57.04-38.51,76.06-22.44,15.37-47.77,18.42-73.98,13.83-45.15-10.18-65.29-46.86-80.08-86.62,35.43-3.75,76.62-4.46,112.22-5.52ZM99.07,366.53c11.95-.46,33.45,14.94,40.63,24.42-12-3.54-41.78-8.87-40.63-24.42ZM89.25,435.2c7.47-11.03,23.17-14.89,35.75-16.89,45.33-5.68,57.24,47.01,58.75,81.67-10.36-2.26-20.8-4.97-31.1-7.53-19.09-5.47-84.42-26.2-63.4-57.26ZM507.12,1341.33c-38.45-3.34-51.23-30.37-53.06-65.32-11.87,17.14-16.44,38.57-6.73,57.93,4.85,9.68,12.74,15.09,21.27,21.12-16.85.65-34.07.32-50.89-.76-7.3-.47-16.77-1.7-23.68.4-3.05,4.03-1.07,7.95,2.6,11.02,10.97,9.19,35.15,12.19,49.68,11.4,36.41-1.97,73.49,1.14,109.51,1.18-33.84,18.57-70.41,23.65-108.4,26.18-68.35,4.53-127.35-3.47-192.14-25.44.35.47,1.06,1.41,1.42,1.87,20.57,25.85,77.28,35.51,107.66,39.13,69.63,8.3,225.3,14.4,280.52-29.14,30.37-33.86-64.94-49.08-82.23-58.42-13.56-7.33-18.45-10.51-29.55-20.92,34.58,3.15,99.88,22.43,128.11,43.54,7.26,5.42,14.76,12.86,15.95,22.3.8,6.36-1.67,12.17-5.55,17.08-23.15,29.23-100.84,40.56-136.63,44.35-73.57,7.8-239.83,4.82-297.02-42.11-6.94-5.7-13.62-13.42-14.4-22.74-.51-6.08,1.88-11.73,5.75-16.32,24.77-29.44,103.21-45.72,139.79-49.2-5.48,7.04-27.53,26.92-27.72,31.49,5.3,3.08,26.4-1.82,32.1-4.11,82.59-33.44,66.7-141.06,69.45-213.62,2.02-53.22,1.16-110.69,1.81-164.21.06-4.59-.56-8.85,2.94-12.39,5.09,1.03,10.18,5.46,11.53,10.23,6.76,23.89,3.75,58.91,3.45,83.57l-1.21,132.67c0,60.09-4.7,126.1,45.68,169.26ZM818.12,529.26c-71.59,100.93-147.94,200.22-236.2,287.23-10.66,10.51-23.21,22.29-36.3,29.67-31.61,17.84-70.89,21.03-106.32,16.43-12.51-1.65-25.83-5.46-38.02-8.6,11.81,22.21,36.45,34.53,61.08,34.56,12.5.01,24.62-2.49,36.88-4.59-3.29,4.64-5.69,7.79-10.51,10.92-40.43,26.11-71.29-5.23-98.01-32.74-104.62-107.69-191.41-230.52-275.09-354.78,87.86,29.88,174.14,44.01,266.76,48.69,13.15.66,75.26,6.36,82.13-2.89-2.05-5.71-28.44-9.51-35.29-10.73-47.32-8.12-91.61-21.8-132.53-47.46-7.57-4.75-44.11-32.18-50.47-30.85-1.05,1.71-1.21,1.24-.8,3.23,5.14,24.64,25.51,41.18,44.32,54.75-31.26-2.58-45.06-7.8-63.2-34.34-17.69-25.88-33.99-57.27-41.85-87.65-11.92-46.07-18.38-94.03-49.33-132.37-18.77-23.62-41.47-41.17-67.47-56.28-11.68-6.79-25.97-14.77-30.57-28.17-3.62-10.54,2.3-16.03,11.91-18.45,11.97-.65,24.44,5.83,34.17,12.54,32.59,22.56,53.75,59.55,72.1,93.5,16.81,31.1,38.49,99.77,84.22,91.95,31.15-5.32,3.67-71.26,21.17-75.5,12.65,4.48,13.91,51.05,16.06,62.39,13.67,72.35,55.15,146.16,135.43,154.93,12.21,1.34,23.02,1.33,35.42,1.22-21.29,6.76-52.56,6.81-75.02,7.67,43.06,21.29,92.41,22.85,137.33,6.38,30.6-11.22,61.18-35.92,74.76-65.95-7.91,2.69-19.71,11.38-26.64,16.35-20.8,14.91-35.18,23.36-59.92,29.03,12.31-10.6,26.98-19.6,40.36-31.62,43.4-38.98,77.19-86.22,93.88-142.3,2.4,14.87,10.94,31.59,25.7,37.15,37.18,14.01,69.86-36.55,93.1-57.43,15.91-14.29,28.4-28.24,48.35-36.52,11.89-5.37,29.6-.44,22.16,14.62-9.4,15.93-33.54,22.68-49.36,30.16-31.44,14.88-53.47,40.97-71.77,70.02-17.55,28.64-37.72,66.75-31.4,101.31,3.48,19.01,20.2,24.99,37.05,19.36,20.1-6.71,32.07-22.07,51-29.94,1.94-.8,3.62.2,5.05,1.22,2.19,14.61-22.04,33.15-33.92,38.96-18.86,9.45-46.63,17.87-67.45,12.33-17.75-4.73-24.14-26.3-26.44-42.06-4.75-32.46,9.63-57.47,19.25-86.71-23.85,14.85-39.41,46.85-53.7,70-14.63,23.29-33.77,45.88-57.49,60.38-18.72,11.44-35.91,19.52-53.37,33.15,18.23.56,54.23,1.76,72.02-.52-26.82,19.74-77.87,16.13-110.61,16.1-42.25-.03-85.86-2.18-127.95-5.6,9.33,25.19,21.83,49.66,32.07,74.47,19.43,9.56,36.69,14.31,58.14,17.56,34.2,5.17,67.51-2.59,96.89-20.5,13.43-8.19,25.59-17.77,39.85-24.94,30.29-15.21,56.84-20.29,90.25-17.24-17.85,5.25-30.3,7.86-47.02,16.05-48,23.52-56.85,73.43-106.6,97.53-26.91,13.03-51.04,16.96-80.17,7.66,62.66-7.4,103.29-24.76,134.68-82.53-60.74,43.78-106.9,55.93-178.81,28.98,7.55,27.13,18.65,56.11,28.96,82.39,4.93,12.57,10.33,27.76,16.29,39.69-30.07-17.22-49.49-64.61-64.71-94.55l-47.45-93.2c-3.64-7.22-17.72-36.39-21.67-41.41l-16.57-3.21c11.91,30.31,26.6,59.5,40.12,89.06,8.59,18.79,20.31,41.89,24.74,61.75-35.09-34.3-72.29-111.86-95.31-156.93-20.26-3.41-41.44-6.72-61.52-10.68,40.78,66.49,162.08,244.11,224.87,282.8,31.84,19.61,69.21,26.27,105.71,17.52,21.41-5.13,41.12-15.31,58.68-28.46,52.62-39.38,111.46-114.33,152.15-166.45,24.91-31.91,50.69-64.37,71.82-98.95-8.99,2.96-27.16,6.28-37.03,7.91-40.88,6.73-90.43,13.56-131.74,12.04,2.44-2.95,8.36-9.28,11.97-9.5,54.02-3.39,107.75-10.52,160.17-24.57,14.39-3.85,29.77-8.42,43.63-14.51-2.15,3.36-4.73,6.78-7.06,10.06ZM440.36,626.96c-4.93.14-8.52.92-11.63-3.44-1.4-6.63,1.94-9.91,7.18-13.26,13.98-1.62,19.02,10.05,4.46,16.7ZM639.22,661.79c-5.9,12.4-13.53,19.82-26.19,24.75-20.66-2.57-10.6-21.46-2.69-31.56,5.91-7.55,9.64-10.41,18.15-14.4,14.94-.95,15.89,10.37,10.73,21.21ZM560.83,714.93c17.71.73,18.97,17.67,2.86,24.09-18.39-.74-18.64-16.49-2.86-24.09ZM546.85,780.23c-3.54-.18-3.87-.87-5.24-3.65.03-5.31,2.59-7.97,6-11.55.94.4,2.48,1.3,3.44,1.82,3.24,5.75-.26,9.07-4.2,13.38ZM485.15,798.01c-16.65-.75-16.3-14.66-3.23-19.53,15.15,1.64,16.74,14.09,3.23,19.53ZM677.06,605.73c5.79-6.85,6.6-8.6,14.81-11.77,3.61-.09,7.6.03,11.24.06-4.98,5.74-6.68,8.78-14.02,10.98l-12.03.73ZM800.21,503.41c-5.06,1.47-10.52,2.77-15.65,4.07,5.5-11.95,13.27-29.74,7.92-41.97-10.03-22.91-36.44-16.01-52.83-5-9.1,6.11-16.88,11.7-26.37,16.04-6.89,3.15-14.59,1.26-16.4-6.52-4.66-19.97,3.13-41.91,12-59.42,38.29,9.67,81.28,12.94,117.73,29.27,61.33,27.48,7.19,52.43-26.39,63.53Z"/>
      <path class="cls-1" d="M254.69,395.94c-1.45,24.29,20.96,57.31,44.03,64.83-.52-10.68-34.71-58.63-44.03-64.83Z"/>
      <path class="cls-1" d="M394.64,441.69c6-2.25,9.05-8.94,6.81-14.95-2.24-6.01-8.92-9.08-14.94-6.86-6.04,2.23-9.13,8.94-6.88,14.98,2.25,6.04,8.97,9.1,15,6.83Z"/>
      <path class="cls-1" d="M856.53,146.58c25.61-10.64,70.84-21.41,70.16-56.4-.4-20.76-15.33-31.68-34.6-33.75-35.29,2.15-62.19,26.54-85.34,51.14-34.36,36.5-63.37,82.57-74.95,131.73,6.06-6.39,11.62-12.51,17.43-19.13,30.87-32.55,65.86-56.38,107.3-73.6ZM879.8,82.73c6.01-.51,17.2-2.04,18.13,5.8-2.61,7.8-12.65,14.17-19.8,17.47-20.7,9.53-39.27,20.7-58.34,32.98l-12.74,8.02c18.3-28.02,39.97-53.64,72.75-64.27Z"/>
      <path class="cls-1" d="M118.42,114.34c21.37,16.65,42.51,37.99,57.83,60.33l11.36,17.18c-7.7-43.63-39.5-174.91-97.33-174.98-20.93,3.11-30.65,19.89-27.61,40.22,4.28,28.7,35.32,41.39,55.75,57.25ZM90.04,42.17c16.87,3.12,32.1,22.82,34.8,39.43.3,1.82-.36,2.09-1.46,3.09l-2.56-.13c-10.82-5.43-53.68-29.93-30.79-42.39Z"/>
      <path class="cls-1" d="M926.1,356.8c-8.78-11.92-25.58-12.36-39-11.94-18.77,2.34-33.93,8.08-46.82,22.85,15.31,4.37,32.85,11.65,46.65,15.15,11.57,2.62,23.87,5.44,34.66-1.15,8.89-5.43,10.53-16.74,4.51-24.92Z"/>
      <path class="cls-1" d="M14.96,278.13c-18.18,7.73-21.33,29.68-.85,35.8,13.65,4.07,30.74,2.06,44.91,1.22l15.39-.95c-13.62-22.66-32.14-37.32-59.46-36.07Z"/>
      <path class="cls-1" d="M662.76,54.99c23.25-12.53,42.97-57.65,2.75-54.86-26.92,13.67-38.06,62.27-2.75,54.86Z"/>
      <path class="cls-1" d="M436.61,174.66c23.5-11.98,19.92-57.79-8.94-57.05-24.35,11.47-18.38,58.21,8.94,57.05Z"/>
      <path class="cls-1" d="M287.85,74.06c18.87-12.44,6.96-47.33-17.86-45.82-19.54,10.96-3.02,48.58,17.86,45.82Z"/>
      <path class="cls-1" d="M914.08,203.64c-28.46,4.74-34.96,40.48-5.21,38.05,25.74-8.07,34.52-38.8,5.21-38.05Z"/>
      <path class="cls-1" d="M540.24,275.15c2.4-1.04,6.11-2.53,8.07-4.17,13.79-11.52,15.25-37.39-8.42-37.26-23.84,8.38-24.48,41.13.35,41.43Z"/>
      <path class="cls-1" d="M336.96,296.3c21.36-9.47,14.44-39.77-7.05-39.05-22.31,9.12-12.66,39.76,7.05,39.05Z"/>
      <path class="cls-1" d="M249.85,174.29c8.19-4.64,9.39-7.86,11.91-16.79-3.2-13.84-6.17-19.98-21.66-19.55-18.26,10.55-12.39,38.3,9.74,36.34Z"/>
    </g>
  </g>
</svg>
